<?xml version="1.0" encoding="utf-8"?>
<!-- Generator: Adobe Illustrator 21.1.0, SVG Export Plug-In . SVG Version: 6.00 Build 0)  -->
<svg version="1.1" id="Ebene_1" xmlns="http://www.w3.org/2000/svg" xmlns:xlink="http://www.w3.org/1999/xlink" x="0px" y="0px"
	 viewBox="0 0 841.9 318.3" style="enable-background:new 0 0 841.9 318.3;" xml:space="preserve">
<style type="text/css">
	.st0{fill:#FFFFFF;}
</style>
<g>
	<path class="st0" d="M86.6,85.5c-3.4-3.6-6.9-6.8-10.5-9.4c-2.4,2.7-4.7,5.8-7.1,8.9c3.5,3,6.9,5.8,10.4,9
		C82.3,91.5,84.7,88.6,86.6,85.5z"/>
	<path class="st0" d="M137.3,91.7c-3.9,0-7.8,2.3-11.3,5.9c-4.2,4.4-6.6,10.8-6.6,17.3c0,2.4,0.5,4.5,1.3,6.3
		c3.1,6.8,10.9,9.5,21.1,9.5c3.2,0,6.8,0,9.9-0.3c0.2,0.6,0.2,1.3,0.2,1.9c0,2.3-4.7,5.6-10.4,7.3c-5,1.5-11.6,1.8-19.1,1.8h-7.4
		c0,0,0,0,0,0v0h-3.4c-3.3,0-6.8-0.1-9-0.4c2.5-4.2,4.6-8.5,4.6-13c0-12.3-10-21.6-21-21.6c-5.4,0-11.5,1.8-16.3,4.8
		c-6,3.6-12.1,9.1-18.6,16.1h-0.4c1.9-4.7,3.1-9.8,3.1-17.5c0-9.5-0.4-19-0.8-28.4l5.7-4.4c-4.9-7.9-7.5-14.2-7.5-19.3l-0.6-0.6
		C46.4,60.2,44,63,44,67c0,2.7,0.3,5.9,0.5,8.6c1,10.1,2.2,27.8,2.2,40.3c0,9-0.2,13-1.3,17.5l-4.7,8c-8.1-0.3-16.2-1.3-24.3-3
		l-0.4,1.1c4.1,4.3,8.4,8,12.7,11.4l6.7,0.8c-2.1,3.6-2.5,7.3-3,10.5l0.7,0.7l7.5-10.6c2.9,0.3,6.8,0.3,9.7,0.3
		c13.9,0,25.2-1.1,34.1-2.8c9,1.8,18.3,2.8,28.4,2.8h2.1v0c0,0,0,0,0,0h7.1c15.6,0,25.8-2.4,31.3-8.7c3-3.5,4.3-8.2,4.3-13.9
		c0-8.4-1.5-15.1-3.7-20.9C150.2,98.5,144.4,91.7,137.3,91.7z M124.9,111c0-3.3,4.7-7.8,10.5-7.8c7.1,0,13.2,8.7,14.9,17
		C136.5,120.3,124.9,118.1,124.9,111z M54.4,141.3h-8.2c13.9-14.9,24-23.1,35.3-23.1c10,0,18.2,7.5,18.2,14.9
		C95.9,139.6,77.4,141.3,54.4,141.3z"/>
	<path class="st0" d="M144.1,73.2c-3.4-3.6-6.9-6.8-10.5-9.4c-2.4,2.7-4.7,5.8-7.1,8.9c3.5,3,6.9,5.8,10.4,9
		C139.8,79.2,142.2,76.3,144.1,73.2z"/>
	<path class="st0" d="M254,131.2c2.9-1.8,7.8-3.4,15.2-3.2l4.7-9.2l-0.3-0.2l-7.1,0.1c-5.5-0.1-10.8-1.1-15-2.8
		c-13.7-5.5-22.9-7.6-28.8-7.6c-10.5,0-18.3,6.1-19,15.8l4.3,11.6h0.9l2.6-7.9l-1.1-4.4c2.5-2.8,6.1-4.4,11.1-4.4
		c8.1,0,17.4,2.4,27.5,6.1l-0.1,0.4c-18.1,10.9-32.6,15.9-46.9,15.9h-5.4c0,0,0,0,0,0h-1.2c-1.1,0-3.4-0.2-5.6-1
		c-3.4-1.2-6.6-3.8-6.6-9.4v-5c0-21.6,0-44.3-1.4-63.5l-0.6-0.4c-2.5,2-5.3,4.9-8.2,8.2c1.3,18.6,2.3,36.1,2.3,52.7
		c0,12.9,0.1,19.1,5.4,24.6c3.6,3.6,8.1,5,15,5h1v0c0,0,0,0,0,0h4.6c13.7,0,26.2-4.1,38-11.8L254,131.2z"/>
	<path class="st0" d="M324.6,136.4c0,5.8-0.1,12-1,17.5l1.1,0.6c5.1-5.6,7.5-9.3,7.7-14.1c0.4-3.9,0.6-9.1,0.6-14.5
		c0-20.4-0.4-42.6-2.3-61.8L330,64c-2.7,2.5-6.1,6.1-8.6,9.3c1.4,15.2,3.2,38.5,3.2,54.6V136.4z"/>
	<path class="st0" d="M389.4,138.2h0.4c3.4,11,10,14.3,17.9,14.3h1.7v0c0,0,0,0,0,0h4.6c13.7,0,26.2-4.1,38-11.8l14.7-9.6
		c2.9-1.8,7.8-3.4,15.2-3.2l4.7-9.2l-0.3-0.2l-7.1,0.1c-5.5-0.1-10.8-1.1-15-2.8c-13.7-5.5-22.9-7.6-28.8-7.6
		c-10.5,0-18.3,6.1-19,15.8l4.3,11.6h0.9l2.6-7.9l-1.1-4.4c2.5-2.8,6.1-4.4,11.1-4.4c8.1,0,17.4,2.4,27.6,6.1l-0.1,0.4
		c-18.1,10.9-32.6,15.9-46.9,15.9h-5.4c0,0,0,0,0,0h-1.5c-6.6,0-12.3-4.6-13.9-13.2c-2.4-12.9-5.1-26.4-8.3-39l-0.5-0.4
		c-2.3,2.8-4.2,6-6.2,9c4.1,15,7.3,26.7,7.3,32.6c0,2.1-2.5,4.7-5.7,6.6c-4.1,2.4-9.7,4.4-14.3,4.4c-8.4,0-12-4.5-12.4-11.8
		l-3.4,0.3c-0.2,2.2-0.3,4.3-0.3,6.5c0,10.3,5.4,16.2,15.3,16.2c5.9,0,11.8-2.4,17.6-5.9C386.9,144.3,388.7,141.5,389.4,138.2z"/>
	<path class="st0" d="M432.7,86.8c3.5,3,6.9,5.8,10.4,9c3-2.5,5.4-5.4,7.3-8.6c-3.4-3.6-6.9-6.8-10.5-9.4
		C437.4,80.6,435,83.6,432.7,86.8z"/>
	<path class="st0" d="M413.9,60.6c0.6,1.1,7.3,1.6,8.7,1.6c4.6-1.7,13.4-5.2,18.3-11.4c0.8,0.3,1.5,0.5,2.1,1l4.1-5.7
		c-0.9-0.6-1.9-1-3.2-1.1c0.4-1.1,0.5-2.4,0.5-3.7c0-9.3-4.2-12.5-7.5-12.5c-5.5,0-11.9,5.3-11.9,12c0,5.1,3.6,7.7,10.6,8.9
		c-5.3,3.9-14.1,7.4-21.9,10.4L413.9,60.6z M429.2,37.8c0-1.7,2.5-3.6,5.1-3.6c3.3,0,6.1,4.7,6.1,8.6c0,0.5-0.1,1.1-0.3,1.6
		C433.6,43.1,429.2,40.8,429.2,37.8z"/>
	<path class="st0" d="M118.8,206.9l-1.3,6.1l0.2,0.2c10.6-3.4,21.6-7.2,32.4-11.5l3.5-6.6l-0.2-0.3
		C143.8,198.5,131,202.8,118.8,206.9z"/>
	<path class="st0" d="M280.1,264.5c-4.1-4.4-17.6-19.7-20.4-23.7c5.4-6.1,7.5-8.6,11-11.8c5-4.7,8.3-6.1,17.2-7.5v-3.3l-27.4,1.1
		v3.5c6,0.7,6.5,1.8,3.9,5.6c-2.2,3.3-6.1,8.5-8.9,11.2c-2.1,1.9-4.2,3.7-8.1,4.5v-60.5c-5.8,1.8-13.7,3.9-19.8,4.5v3.1
		c7.9,0.8,8.7,1.5,8.7,9.8v60.4c0,8.2-0.9,9.1-9.6,10.1v3.4h30.2v-3.4c-8.3-1-9.5-1.6-9.5-10.1v-14c0.8-0.2,1.4-0.3,1.9-0.2
		c1.1,0,2.2,0.7,3.8,2.6c6.8,8.2,15,18.8,21,25.3l19-0.3v-3.4C288.3,271.2,284.6,269.1,280.1,264.5z"/>
	<path class="st0" d="M351.2,261.5v-21.8c0-15.7-7.5-22.2-18.2-22.2c-6.9,0-13.8,4.6-18.7,9.3v-43.1c-5.4,1.7-13.8,3.6-19.9,4.5v3.1
		c8.3,0.8,8.7,1.2,8.7,9.3v61c0,8.4-1.1,9.2-8.9,10v3.4h28.4v-3.4c-7.5-0.8-8.2-1.8-8.2-10v-30.2c3.6-3.9,8.4-6.2,13.2-6.2
		c8.1,0,12.5,5,12.5,15.6v20.8c0,8.3-1.1,9.2-8.4,10v3.4h28.2v-3.4C352.2,270.7,351.2,270.1,351.2,261.5z"/>
	<path class="st0" d="M396.2,217.5L396.2,217.5c-12.5,0-29.7,9.8-29.7,30.8c0,14.1,10.9,28.2,29.6,28.2c13.2,0,29-9.8,29-30.5
		C425.2,230.3,412.9,217.5,396.2,217.5z M397.5,271.9c-10.5,0-17.5-11.8-17.5-28.1c0-14.5,7-22.1,14.6-22.1h0.2
		c11,0,17.1,11.8,17.1,27.1C411.8,266.8,405.1,271.9,397.5,271.9z"/>
	<path class="st0" d="M489.8,259.7v-76.1c-5.2,1.7-14.1,3.6-21.4,4.5v3.3c9.2,0.6,10.1,1,10.1,9.3v18.1c-3.2-1.1-6.6-1.4-8.4-1.4
		c-18.2,0-34.1,13.9-34.1,31.7c0,18,13.9,27.3,24.8,27.3c1.4,0,4.8-0.7,10-3.7l7.7-4.6v8.2c8.2-2.6,18.4-4.3,21.2-4.8v-3.3l-3.7-0.4
		C490.8,267.4,489.8,266.8,489.8,259.7z M478.5,264c-3.2,2.1-7.5,4-11.8,4c-8.1,0-17.8-7-17.8-22.4c0-18.6,10.9-23.3,16.4-23.3
		c5,0,10.1,2.2,13.2,6.7V264z"/>
	<path class="st0" d="M552.9,267.6c-2.4,0-4.7-1.9-4.7-7.6v-23.1c0-6.8-1.4-12.2-6.2-16.2c-3-2.3-6.8-3.2-10.9-3.2
		c-7.3,1.4-16.1,6.3-19.9,9c-2.5,1.8-4.2,3.3-4.2,5.3c0,3.1,3.4,5.7,6,5.7c2,0,3.4-0.9,4.2-3.2c1.1-4.1,2.3-7,3.9-8.7
		c1.3-1.4,3.2-2.3,5.5-2.3c6.2,0,10.4,4.9,10.4,14.1v2.3c-2.8,2.4-11.8,5.7-20.2,8.3c-7.1,2.3-10.6,6.1-10.6,12.5
		c0,8.1,6.4,15.8,16.1,15.8c3.7,0,9.8-4.7,15.1-8c0.6,2,1.4,3.8,3.2,5.4c1.4,1.4,4.2,2.5,6.7,2.5l11.5-6.8l-1.3-3.4
		C556.1,267,554.4,267.6,552.9,267.6z M537.1,264.2c-2.3,2.3-6.5,4.2-9.6,4.2c-3.9,0-9-3-9-9.7c0-4.7,2.8-7.3,7.9-9.5
		c2.7-1.2,8-3.7,10.6-5V264.2z"/>
	<path class="st0" d="M619.5,261.5v-21.8c0-15.7-7.5-22.2-18.2-22.2c-6.9,0-13.8,4.6-18.7,9.3v-43.1c-5.4,1.7-13.8,3.6-19.9,4.5v3.1
		c8.3,0.8,8.7,1.2,8.7,9.3v61c0,8.4-1.1,9.2-8.9,10v3.4h28.4v-3.4c-7.5-0.8-8.2-1.8-8.2-10v-30.2c3.6-3.9,8.4-6.2,13.2-6.2
		c8.1,0,12.5,5,12.5,15.6v20.8c0,8.3-1.1,9.2-8.4,10v3.4h28.2v-3.4C620.5,270.7,619.5,270.1,619.5,261.5z"/>
	<path class="st0" d="M681.7,267.6c-2.4,0-4.7-1.9-4.7-7.6v-23.1c0-6.8-1.4-12.2-6.2-16.2c-3-2.3-6.8-3.2-10.9-3.2
		c-7.3,1.4-16.1,6.3-19.9,9c-2.5,1.8-4.2,3.3-4.2,5.3c0,3.1,3.4,5.7,6,5.7c2,0,3.4-0.9,4.2-3.2c1.1-4.1,2.3-7,3.9-8.7
		c1.3-1.4,3.2-2.3,5.5-2.3c6.2,0,10.4,4.9,10.4,14.1v2.3c-2.8,2.4-11.8,5.7-20.2,8.3c-7.1,2.3-10.6,6.1-10.6,12.5
		c0,8.1,6.4,15.8,16.1,15.8c3.7,0,9.8-4.7,15.1-8c0.6,2,1.4,3.8,3.2,5.4c1.4,1.4,4.2,2.5,6.7,2.5l11.5-6.8l-1.3-3.4
		C684.9,267,683.2,267.6,681.7,267.6z M665.9,264.2c-2.3,2.3-6.5,4.2-9.6,4.2c-3.9,0-9-3-9-9.7c0-4.7,2.8-7.3,7.9-9.5
		c2.7-1.2,8-3.7,10.6-5V264.2z"/>
	<path class="st0" d="M711.6,218.9v-5.4c-0.3-10.8,1.1-16.8,2.5-19c1.4-2.3,3.3-3.9,6.7-3.9c4.2,0,8.1,2.5,10.7,5.1
		c1.2,1.3,2.4,1.3,3.8,0.3c1.2-1,2.1-2,2.6-3.1c0.8-1.7,0.7-3.4-0.7-4.9c-2.2-2.5-5.9-4.3-10.5-4.4c-5.4,0.6-10,2.9-14.6,6.9
		c-7.2,6-9.5,12.2-10.4,15.1c-0.9,2.8-1.4,6.2-1.4,10.4v2.9h-6.1l-3.7,3.9l0.6,1.5h9.2v37.2c0,8.4-1.1,9.2-9.3,10v3.4h31.8v-3.3
		c-10.2-1.1-11.2-1.5-11.2-11v-36.3h14c1.6-0.9,2.2-4.2,1.4-5.4H711.6z"/>
	<path class="st0" d="M778.6,237.2c0-10.2-8.9-19.7-20-19.7h-0.1c-6.9,0-14,3.7-19.7,9.8c-5.3,5.7-8.3,13.4-8.3,21.9
		c0,14.3,9.5,27.2,25.5,27.2c4.2,0,13.6-2.3,22-12.9l-2.2-2.8c-4.7,4.4-9.7,6.4-15.1,6.4c-9,0-18.8-7-19-23.6
		c15.1-0.5,31.4-1.8,33.8-2.2C777.9,240.8,778.6,239.6,778.6,237.2z M763.5,237.7c-7.3,0.3-14.2,0.3-21.1,0.3
		c1.8-10.7,7.5-15.7,13.1-15.7h0.1c6.8,0,11.1,6.2,11.1,13C766.5,236.9,765.8,237.6,763.5,237.7z"/>
	<path class="st0" d="M809.3,240.8c-5.9-2.3-10.8-5.4-10.8-10.6c0-5,3.3-8.5,8.1-8.5c6.4,0,11,5.4,13.5,12.9l3.5-1.1
		c-0.3-3.1-1.8-11-3-13.8c-2.6-1.1-6.1-2.3-11.8-2.3c-12.3,0-20.2,7.7-20.2,16.8c0,10.2,9,14.6,16.6,18c6.7,3,10.1,5.9,10.1,11.1
		c0,5.1-4.2,8.7-8.9,8.7c-7.7,0-13.6-7.6-16.1-16.2l-3.6,0.5c0.2,5.1,1.4,14.1,2.3,15.8c2.2,1.8,8.3,4.2,15.1,4.2
		c10.8,0,21.8-6,21.8-18C825.9,249.4,819.2,244.7,809.3,240.8z"/>
	<rect x="513" y="197.2" class="st0" width="34.5" height="7.5"/>
	<rect x="641.4" y="197.2" class="st0" width="34.5" height="7.5"/>
</g>
</svg>
